<?xml version="1.0" standalone="no"?>
<!DOCTYPE svg PUBLIC "-//W3C//DTD SVG 20010904//EN"
 "http://www.w3.org/TR/2001/REC-SVG-20010904/DTD/svg10.dtd">
<svg version="1.0" xmlns="http://www.w3.org/2000/svg"
 width="585.000000pt" height="327.000000pt" viewBox="0 0 585.000000 327.000000"
 preserveAspectRatio="xMidYMid meet">
<metadata>
Created by potrace 1.10, written by Peter Selinger 2001-2011
</metadata>
<g transform="translate(0.000000,327.000000) scale(0.100000,-0.100000)"
fill="#3fb33d" stroke="none">
<path d="M2540 2950 c-107 -4 -235 -15 -285 -24 -49 -10 -128 -22 -175 -27
-47 -5 -105 -16 -130 -24 -25 -8 -76 -19 -115 -26 -38 -6 -86 -18 -105 -26
-19 -7 -65 -21 -103 -29 -39 -9 -88 -25 -111 -35 -23 -10 -50 -19 -60 -19 -11
0 -61 -20 -113 -45 -51 -25 -96 -45 -100 -45 -4 0 -42 -16 -83 -36 -189 -92
-398 -240 -516 -367 -74 -80 -172 -218 -195 -274 -7 -15 -17 -41 -24 -58 -30
-71 -27 -253 6 -330 4 -11 18 -44 30 -72 12 -29 25 -53 29 -53 4 0 12 -11 18
-24 23 -51 100 -145 179 -217 68 -63 339 -259 358 -259 3 0 24 -14 47 -30 22
-17 48 -30 56 -30 8 0 47 -15 86 -34 181 -86 258 -116 294 -116 15 0 54 -12
87 -25 33 -14 80 -28 105 -32 25 -3 56 -12 70 -19 34 -17 151 -44 193 -44 18
0 67 -9 108 -19 41 -10 139 -24 219 -30 80 -6 183 -15 230 -20 173 -17 744 22
985 68 28 5 88 15 135 22 47 6 101 17 120 24 19 8 57 16 83 19 27 3 63 12 80
20 18 9 55 20 82 27 68 15 128 36 200 69 358 166 485 253 706 486 142 149 190
228 220 364 18 83 18 94 4 172 -9 46 -21 97 -27 113 -17 46 -76 143 -132 218
-58 78 -240 241 -348 312 -40 26 -85 56 -100 66 -33 23 -190 101 -238 118 -35
13 -83 32 -175 69 -27 12 -88 32 -135 46 -47 13 -116 34 -155 45 -38 12 -79
21 -90 21 -11 0 -73 14 -139 30 -65 17 -133 30 -151 30 -19 0 -66 7 -105 15
-154 32 -504 47 -820 35z m-605 -536 c36 -14 74 -23 172 -40 23 -5 40 0 62 15
33 24 61 18 80 -17 12 -22 -4 -169 -24 -229 -8 -24 -15 -55 -15 -69 0 -42 -30
-84 -61 -84 -15 0 -31 6 -37 13 -10 12 -54 121 -67 165 -11 38 -99 100 -152
108 -54 8 -163 -22 -225 -62 -102 -66 -209 -225 -285 -424 -25 -68 -28 -89
-31 -225 -4 -175 3 -207 62 -263 116 -113 350 -88 486 52 35 36 51 46 77 46
49 0 62 -33 35 -86 -23 -45 -106 -127 -172 -170 -25 -16 -47 -32 -50 -35 -15
-18 -207 -59 -272 -59 -73 0 -90 4 -203 36 -75 22 -194 108 -232 166 -15 24
-30 45 -33 48 -20 17 -40 58 -40 82 0 15 -9 51 -21 80 -38 98 -15 276 58 443
43 99 152 238 231 297 87 65 204 138 222 138 9 0 20 4 25 9 16 14 168 56 260
70 77 13 107 11 150 -5z m1114 -49 c28 -29 12 -62 -32 -70 -59 -11 -96 -52
-129 -140 -16 -44 -33 -98 -37 -120 -4 -22 -17 -69 -28 -105 -11 -36 -28 -94
-37 -130 -9 -36 -21 -85 -28 -110 -6 -25 -21 -74 -33 -110 -50 -145 -65 -199
-75 -274 -6 -43 -9 -84 -6 -91 3 -8 30 -25 60 -39 61 -28 66 -48 17 -68 -39
-16 -464 -23 -533 -9 -99 21 -101 52 -6 81 42 12 58 24 79 55 26 40 81 200 98
285 14 67 41 166 67 248 13 40 24 82 24 93 0 12 11 47 24 78 13 31 29 81 35
111 47 222 46 210 30 225 -8 8 -32 21 -54 28 -44 15 -59 48 -28 63 23 10 256
21 435 20 124 -1 139 -3 157 -21z m852 10 c104 -22 161 -67 205 -161 19 -39
34 -82 34 -95 0 -13 -14 -58 -31 -99 -34 -85 -89 -149 -159 -185 -25 -12 -54
-32 -64 -44 -19 -21 -19 -22 11 -49 49 -44 87 -102 117 -180 l28 -73 -27 -84
c-48 -145 -134 -229 -295 -286 -63 -23 -74 -23 -450 -24 -405 0 -430 3 -430
45 0 27 27 50 58 50 15 0 38 7 51 16 26 19 60 87 61 122 0 13 9 35 19 50 10
15 24 56 31 92 7 36 16 73 21 82 5 10 14 44 20 75 5 32 21 85 33 118 39 97
107 354 117 438 11 90 8 98 -51 116 -43 13 -49 26 -26 56 18 24 104 31 428 33
169 2 245 -2 299 -13z"/>
<path d="M3620 2236 c-6 -8 -18 -37 -25 -63 -7 -26 -18 -61 -24 -78 -6 -16
-19 -68 -30 -115 -10 -47 -22 -93 -26 -102 -11 -28 22 -33 81 -13 78 26 147
109 160 191 9 64 -4 152 -27 175 -23 23 -91 26 -109 5z"/>
<path d="M3473 1698 c-32 -42 -123 -341 -123 -407 l0 -53 79 3 c71 4 83 7 118
35 90 72 137 196 114 299 -15 68 -42 102 -89 114 -82 22 -89 22 -99 9z"/>
</g>
</svg>
